
<svg width="149" height="41" viewBox="0 0 149 41" fill="none" xmlns="http://www.w3.org/2000/svg">
    <g id="Group">
    <g id="Group_2">
    <path id="Vector" d="M0.264954 19.5598C0.264954 30.3358 9.02881 39.0997 19.8049 39.0997V30.5853C13.735 30.5853 8.77937 25.6462 8.77937 19.5598C8.77937 13.8059 13.2029 9.06641 18.8237 8.58415C19.3559 8.53426 19.7882 8.052 19.7882 7.51985V1.11741C19.7882 0.485481 19.2727 0.00321967 18.6574 0.0531088C8.43014 0.635149 0.264954 9.16619 0.264954 19.5598Z" fill="#0A057B"/>
    <path id="Vector_2" d="M19.8215 30.5853V39.1163C30.2151 39.1163 38.7461 30.9511 39.3448 20.7072C39.378 20.0919 38.8958 19.5764 38.2805 19.5764C38.2805 19.5764 32.2605 19.5764 31.878 19.5764C31.4956 19.5764 30.8636 19.8425 30.8137 20.674C30.4645 26.2117 25.5089 30.5853 19.8215 30.5853Z" fill="#3540F4"/>
    <path id="Vector_3" d="M29.4501 16.184C32.9861 16.184 35.8525 13.3176 35.8525 9.78159C35.8525 6.24562 32.9861 3.37915 29.4501 3.37915C25.9141 3.37915 23.0477 6.24562 23.0477 9.78159C23.0477 13.3176 25.9141 16.184 29.4501 16.184Z" fill="#F7B219"/>
    </g>
    <g id="Group_3">
    <path id="Vector_4" d="M71.8891 23.7505C70.4424 28.6231 65.8526 31.9823 60.3814 31.9823C53.2639 31.9823 47.9922 26.6109 47.9922 19.6264C47.9922 12.6585 53.2805 7.27051 60.3814 7.27051C65.8526 7.27051 70.4424 10.6463 71.8891 15.5022C72.1718 16.3004 71.7062 16.816 70.908 16.816H65.7694C65.1541 16.816 64.7384 16.5333 64.3725 16.0177C63.5244 14.8537 62.0776 14.1885 60.398 14.1885C57.3548 14.1885 55.0266 16.3836 55.0266 19.6098C55.0266 22.8359 57.3714 25.031 60.398 25.031C62.0776 25.031 63.5244 24.3825 64.3725 23.2517C64.7384 22.6862 65.1208 22.4035 65.7694 22.4035H70.908C71.7062 22.4534 72.1718 22.969 71.8891 23.7505Z" fill="#0A057B"/>
    <path id="Vector_5" d="M100.193 19.643C100.193 26.6108 95.1375 31.9989 89.0177 31.9989C85.8913 31.9989 83.6131 30.9346 82.0499 29.1552V39.5321C82.0499 40.2805 81.6341 40.6962 80.8858 40.6962H76.2128C75.4645 40.6962 75.0488 40.2805 75.0488 39.5321V9.11638C75.0488 8.36804 75.4645 7.9523 76.2128 7.9523H80.8858C81.6341 7.9523 82.0499 8.36804 82.0499 9.11638V10.1308C83.6131 8.35141 85.8913 7.28711 89.0177 7.28711C95.1541 7.28711 100.193 12.6751 100.193 19.643ZM93.1752 19.643C93.1752 16.1341 90.8304 13.939 87.6042 13.939C84.378 13.939 82.0333 16.1341 82.0333 19.643C82.0333 23.1519 84.378 25.347 87.6042 25.347C90.847 25.347 93.1752 23.1519 93.1752 19.643Z" fill="#0A057B"/>
    <path id="Vector_6" d="M102.305 19.643C102.305 12.6751 107.826 7.28711 114.694 7.28711C121.562 7.28711 127.083 12.6585 127.083 19.643C127.083 26.6108 121.562 31.9989 114.694 31.9989C107.826 31.9989 102.305 26.6108 102.305 19.643ZM120.082 19.643C120.082 16.317 117.737 14.1219 114.711 14.1219C111.667 14.1219 109.339 16.317 109.339 19.643C109.339 22.9689 111.684 25.164 114.711 25.164C117.737 25.164 120.082 22.9689 120.082 19.643Z" fill="#0A057B"/>
    <path id="Vector_7" d="M148.735 24.316C148.735 29.6874 144.145 31.9823 139.007 31.9823C134.234 31.9823 129.927 29.837 129.378 24.8647C129.278 24.0665 129.761 23.6508 130.509 23.6508H135.099C135.797 23.6508 136.03 24.0333 136.363 24.6319C136.745 25.4302 137.626 25.8958 139.023 25.8958C140.986 25.8958 141.734 25.2472 141.734 24.2993C141.734 20.9235 129.528 24.0166 129.528 14.9368C129.528 9.64856 134.117 7.27051 139.023 7.27051C143.38 7.27051 147.637 9.41574 148.186 14.388C148.286 15.1862 147.82 15.602 147.055 15.602H142.466C141.767 15.602 141.534 15.2195 141.202 14.571C140.869 13.8226 140.071 13.357 139.007 13.357C137.277 13.357 136.529 14.0055 136.529 14.9534C136.529 18.429 148.735 15.2029 148.735 24.316Z" fill="#0A057B"/>
    </g>
    </g>
    </svg>
    