
<svg width="460" height="383" viewBox="0 0 460 383" fill="none" xmlns="http://www.w3.org/2000/svg">
    <path d="M158.579 45.1589C157.417 45.1589 156.244 45.0673 155.092 44.8866L155.203 44.1792C156.318 44.3542 157.454 44.4427 158.581 44.4427L158.711 44.4424L158.716 45.1584L158.579 45.1589ZM162.336 44.8422L162.216 44.1363C163.367 43.9409 164.514 43.6497 165.626 43.2705L165.858 43.9481C164.709 44.3399 163.524 44.6406 162.336 44.8422ZM151.56 44.0372C150.41 43.6611 149.283 43.1895 148.208 42.635L148.536 41.9987C149.577 42.5356 150.669 42.9924 151.782 43.3564L151.56 44.0372ZM169.192 42.507L168.856 41.8747C169.893 41.3248 170.89 40.6876 171.821 39.9811L172.254 40.5513C171.293 41.2813 170.263 41.9391 169.192 42.507ZM145.123 40.7171C144.15 39.9977 143.229 39.1946 142.386 38.3298L142.898 37.8297C143.715 38.6668 144.607 39.4447 145.549 40.1412L145.123 40.7171ZM174.96 38.1276L174.441 37.6344C175.246 36.7864 175.989 35.8654 176.65 34.8968L177.241 35.3001C176.559 36.3007 175.792 37.2518 174.96 38.1276ZM140.067 35.5323C139.375 34.5437 138.757 33.4892 138.23 32.3981L138.875 32.0868C139.385 33.1436 139.983 34.1643 140.654 35.1217L140.067 35.5323ZM179.04 32.1444L178.392 31.8405C178.889 30.7792 179.304 29.6706 179.626 28.5453L180.314 28.7418C179.982 29.904 179.554 31.0487 179.04 32.1444ZM136.916 29.0116C136.568 27.85 136.313 26.6546 136.157 25.4584L136.867 25.3659C137.018 26.524 137.266 27.6816 137.602 28.8065L136.916 29.0116ZM181.028 25.1797L180.318 25.0958C180.417 24.2521 180.467 23.3944 180.467 22.5467C180.467 22.2254 180.46 21.9 180.446 21.5796L181.161 21.5478C181.176 21.8785 181.183 22.2148 181.183 22.5467C181.183 23.4227 181.131 24.3085 181.028 25.1797ZM136.696 21.8508L135.98 21.8276C136.019 20.6202 136.157 19.4053 136.391 18.2171L137.093 18.3551C136.867 19.5055 136.733 20.6814 136.696 21.8508ZM180.005 18.0896C179.766 16.9484 179.431 15.8126 179.01 14.7143L179.678 14.458C180.113 15.5918 180.459 16.7642 180.706 17.9427L180.005 18.0896ZM138.046 14.968L137.374 14.7197C137.793 13.5856 138.308 12.477 138.902 11.4243L139.526 11.7762C138.95 12.7961 138.452 13.8697 138.046 14.968ZM178.945 14.5473C178.515 13.4533 177.996 12.3894 177.403 11.3853L178.019 11.021C178.632 12.0578 179.168 13.156 179.611 14.2856L178.945 14.5473ZM141.496 8.86167L140.936 8.41434C141.693 7.46898 142.531 6.57917 143.427 5.76984L143.907 6.30108C143.039 7.08521 142.228 7.94667 141.496 8.86167ZM175.373 8.51257C174.623 7.61532 173.793 6.77162 172.907 6.00525L173.376 5.46369C174.291 6.25527 175.148 7.12646 175.923 8.05349L175.373 8.51257ZM146.699 4.16321L146.312 3.56122C147.325 2.90826 148.403 2.33091 149.514 1.84577L149.8 2.50188C148.724 2.97184 147.681 3.53086 146.699 4.16321ZM170.07 3.92608C169.073 3.31206 168.019 2.77366 166.937 2.32604L167.21 1.6642C168.328 2.12643 169.417 2.68258 170.446 3.31636L170.07 3.92608ZM153.127 1.35289L152.948 0.659552C154.121 0.356268 155.325 0.146918 156.527 0.0372317L156.592 0.750044C155.429 0.85658 154.263 1.05935 153.127 1.35289ZM163.588 1.24521C162.448 0.975718 161.278 0.797012 160.11 0.714246L160.161 0C161.367 0.0856297 162.575 0.270065 163.753 0.548434L163.588 1.24521Z" fill="#4D43F1"/>
    <path d="M384.137 295.374L384.125 294.658C385.311 294.638 386.509 294.589 387.685 294.514L387.73 295.229C386.544 295.304 385.335 295.353 384.137 295.374ZM380.542 295.353C379.35 295.319 378.142 295.256 376.953 295.166L377.007 294.453C378.185 294.541 379.382 294.604 380.563 294.638L380.542 295.353ZM391.311 294.915L391.232 294.204C392.408 294.074 393.596 293.913 394.761 293.728L394.874 294.435C393.697 294.622 392.498 294.784 391.311 294.915ZM373.375 294.811C372.193 294.666 370.996 294.49 369.817 294.289L369.938 293.583C371.106 293.783 372.291 293.957 373.462 294.101L373.375 294.811ZM398.41 293.787L398.264 293.086C399.425 292.844 400.592 292.573 401.733 292.279L401.912 292.972C400.76 293.269 399.582 293.543 398.41 293.787ZM366.289 293.599C365.124 293.343 363.949 293.055 362.797 292.744L362.984 292.052C364.125 292.361 365.289 292.646 366.443 292.9L366.289 293.599ZM405.371 291.992L405.16 291.308C406.291 290.958 407.427 290.578 408.537 290.176L408.781 290.85C407.66 291.255 406.513 291.639 405.371 291.992ZM359.35 291.722C358.215 291.357 357.07 290.958 355.947 290.537L356.198 289.866C357.311 290.283 358.445 290.678 359.569 291.041L359.35 291.722ZM412.123 289.55L411.848 288.888C412.933 288.437 414.026 287.952 415.095 287.446L415.401 288.093C414.322 288.604 413.219 289.094 412.123 289.55ZM352.604 289.19C351.505 288.717 350.404 288.211 349.331 287.688L349.645 287.044C350.708 287.563 351.799 288.064 352.887 288.533L352.604 289.19ZM418.609 286.483L418.273 285.851C419.314 285.297 420.357 284.711 421.373 284.108L421.738 284.723C420.713 285.332 419.66 285.924 418.609 286.483ZM346.133 286.032C345.087 285.459 344.039 284.852 343.017 284.228L343.39 283.617C344.403 284.236 345.441 284.837 346.477 285.404L346.133 286.032ZM424.782 282.817L424.388 282.219C425.376 281.568 426.36 280.885 427.312 280.192L427.734 280.77C426.773 281.47 425.78 282.159 424.782 282.817ZM339.991 282.28C339.006 281.612 338.02 280.909 337.061 280.192L337.49 279.619C338.439 280.33 339.417 281.025 340.393 281.687L339.991 282.28ZM430.587 278.586L430.139 278.028C431.06 277.288 431.976 276.517 432.862 275.734L433.336 276.271C432.441 277.061 431.516 277.84 430.587 278.586ZM334.232 277.969C333.31 277.21 332.395 276.418 331.511 275.617L331.992 275.087C332.867 275.88 333.774 276.664 334.687 277.417L334.232 277.969ZM435.973 273.829L435.475 273.315C436.323 272.492 437.164 271.637 437.973 270.775L438.495 271.265C437.678 272.135 436.83 272.998 435.973 273.829ZM328.904 273.141C328.056 272.297 327.219 271.425 326.416 270.546L326.944 270.063C327.74 270.933 328.569 271.798 329.409 272.634L328.904 273.141ZM440.894 268.586L440.35 268.121C441.119 267.22 441.877 266.29 442.6 265.358L443.165 265.797C442.435 266.738 441.671 267.676 440.894 268.586ZM324.052 267.839C323.288 266.921 322.537 265.973 321.819 265.024L322.39 264.592C323.101 265.533 323.845 266.471 324.603 267.381L324.052 267.839ZM445.304 262.904L444.719 262.492C445.401 261.523 446.068 260.526 446.701 259.529L447.305 259.913C446.666 260.919 445.993 261.925 445.304 262.904ZM319.72 262.108C319.047 261.125 318.388 260.113 317.761 259.098L318.37 258.722C318.991 259.727 319.644 260.73 320.311 261.704L319.72 262.108ZM449.164 256.831L448.542 256.475C449.128 255.45 449.698 254.394 450.237 253.338L450.875 253.663C450.331 254.729 449.755 255.795 449.164 256.831ZM315.946 256C315.367 254.957 314.806 253.888 314.279 252.821L314.921 252.504C315.443 253.56 315.999 254.62 316.572 255.653L315.946 256ZM452.436 250.417L451.783 250.122C452.272 249.04 452.741 247.934 453.175 246.836L453.841 247.099C453.402 248.208 452.929 249.324 452.436 250.417ZM312.764 249.568C312.287 248.476 311.829 247.359 311.406 246.249L312.075 245.993C312.494 247.093 312.947 248.199 313.42 249.281L312.764 249.568ZM455.087 243.718L454.409 243.486C454.791 242.369 455.152 241.227 455.481 240.09L456.169 240.289C455.836 241.437 455.472 242.59 455.087 243.718ZM310.202 242.861C309.829 241.724 309.479 240.566 309.161 239.419L309.852 239.228C310.166 240.364 310.513 241.511 310.883 242.637L310.202 242.861ZM457.087 236.813L456.39 236.646C456.665 235.499 456.915 234.327 457.136 233.164L457.839 233.297C457.617 234.472 457.364 235.655 457.087 236.813ZM308.285 235.931C308.023 234.772 307.784 233.587 307.575 232.407L308.279 232.282C308.487 233.45 308.724 234.625 308.983 235.773L308.285 235.931ZM458.424 229.75L457.715 229.65C457.88 228.483 458.019 227.293 458.129 226.112L458.842 226.179C458.731 227.371 458.59 228.572 458.424 229.75ZM307.032 228.854C306.88 227.674 306.753 226.471 306.656 225.278L307.369 225.22C307.465 226.402 307.591 227.593 307.742 228.762L307.032 228.854ZM459.092 222.593L458.377 222.56C458.431 221.383 458.459 220.185 458.459 218.999H459.175C459.175 220.196 459.147 221.405 459.092 222.593ZM306.448 221.689C306.418 220.8 306.402 219.895 306.402 218.999C306.402 218.697 306.404 218.395 306.407 218.094L307.123 218.102C307.119 218.401 307.118 218.7 307.118 218.999C307.118 219.887 307.133 220.784 307.164 221.665L306.448 221.689ZM458.439 217.24C458.412 216.056 458.357 214.859 458.275 213.682L458.989 213.632C459.072 214.82 459.128 216.028 459.155 217.223L458.439 217.24ZM307.247 214.543L306.532 214.501C306.601 213.306 306.7 212.101 306.825 210.918L307.537 210.993C307.413 212.165 307.315 213.359 307.247 214.543ZM457.946 210.135C457.809 208.964 457.642 207.777 457.45 206.609L458.156 206.493C458.351 207.672 458.519 208.87 458.657 210.053L457.946 210.135ZM307.992 207.461L307.284 207.353C307.465 206.172 307.676 204.981 307.912 203.813L308.614 203.955C308.38 205.112 308.171 206.292 307.992 207.461ZM456.788 203.109C456.541 201.956 456.263 200.79 455.961 199.645L456.654 199.462C456.958 200.619 457.239 201.795 457.488 202.959L456.788 203.109ZM309.4 200.481L308.706 200.306C308.997 199.149 309.32 197.983 309.666 196.841L310.351 197.049C310.009 198.179 309.688 199.334 309.4 200.481ZM454.971 196.224C454.616 195.096 454.229 193.962 453.82 192.854L454.492 192.607C454.904 193.725 455.295 194.87 455.654 196.009L454.971 196.224ZM311.466 193.656L310.791 193.417C311.192 192.289 311.625 191.157 312.078 190.051L312.74 190.322C312.291 191.418 311.863 192.54 311.466 193.656ZM452.515 189.55C452.056 188.466 451.565 187.376 451.053 186.31L451.699 186C452.215 187.076 452.712 188.177 453.174 189.271L452.515 189.55ZM314.172 187.053L313.523 186.751C314.027 185.671 314.565 184.585 315.122 183.524L315.756 183.857C315.204 184.908 314.671 185.984 314.172 187.053ZM449.44 183.141C448.882 182.105 448.29 181.066 447.68 180.052L448.293 179.682C448.909 180.707 449.507 181.756 450.071 182.802L449.44 183.141ZM317.488 180.74L316.871 180.377C317.475 179.348 318.113 178.318 318.766 177.317L319.366 177.708C318.719 178.7 318.087 179.72 317.488 180.74ZM445.774 177.047C445.12 176.065 444.432 175.085 443.73 174.134L444.306 173.709C445.015 174.67 445.709 175.659 446.37 176.65L445.774 177.047ZM321.383 174.769L320.803 174.35C321.5 173.384 322.231 172.419 322.975 171.483L323.536 171.929C322.798 172.856 322.074 173.812 321.383 174.769ZM441.551 171.319C440.806 170.402 440.029 169.491 439.242 168.609L439.776 168.132C440.57 169.022 441.355 169.942 442.107 170.868L441.551 171.319ZM325.819 169.193L325.28 168.721C326.067 167.822 326.885 166.931 327.71 166.071L328.227 166.567C327.408 167.419 326.598 168.302 325.819 169.193ZM436.808 166.01C435.979 165.164 435.12 164.328 434.255 163.526L434.742 163.001C435.615 163.811 436.482 164.655 437.319 165.508L436.808 166.01ZM330.754 164.058L330.262 163.538C331.128 162.717 332.026 161.906 332.929 161.128L333.396 161.67C332.502 162.441 331.613 163.245 330.754 164.058ZM431.587 161.164C430.686 160.402 429.753 159.651 428.812 158.929L429.248 158.361C430.197 159.089 431.14 159.848 432.049 160.617L431.587 161.164ZM336.146 159.409L335.704 158.845C336.642 158.11 337.611 157.387 338.583 156.696L338.998 157.279C338.035 157.964 337.075 158.68 336.146 159.409ZM425.934 156.826C424.961 156.15 423.961 155.488 422.96 154.86L423.34 154.254C424.351 154.888 425.361 155.555 426.342 156.238L425.934 156.826ZM341.946 155.286L341.559 154.684C342.562 154.039 343.594 153.41 344.624 152.815L344.983 153.434C343.962 154.025 342.94 154.648 341.946 155.286ZM419.895 153.036C418.865 152.455 417.806 151.89 416.748 151.358L417.07 150.719C418.138 151.256 419.207 151.826 420.247 152.412L419.895 153.036ZM348.104 151.728L347.775 151.092C348.832 150.546 349.917 150.017 351.001 149.52L351.299 150.171C350.226 150.663 349.151 151.187 348.104 151.728ZM413.524 149.831C412.442 149.349 411.333 148.887 410.23 148.457L410.489 147.79C411.604 148.224 412.722 148.691 413.814 149.177L413.524 149.831ZM354.564 148.768L354.296 148.103C355.406 147.657 356.538 147.233 357.663 146.841L357.899 147.517C356.784 147.905 355.662 148.326 354.564 148.768ZM406.873 147.242C405.752 146.866 404.607 146.512 403.47 146.19L403.666 145.501C404.813 145.826 405.969 146.184 407.101 146.563L406.873 147.242ZM361.289 146.426L361.086 145.74C362.228 145.402 363.396 145.086 364.557 144.802L364.727 145.498C363.577 145.779 362.421 146.092 361.289 146.426ZM400.022 145.3C398.871 145.032 397.698 144.788 396.535 144.574L396.664 143.87C397.838 144.085 399.023 144.332 400.184 144.603L400.022 145.3ZM368.206 144.733L368.068 144.03C369.24 143.801 370.432 143.598 371.612 143.425L371.716 144.133C370.547 144.304 369.366 144.506 368.206 144.733ZM393.018 144.014C391.847 143.856 390.656 143.723 389.478 143.62L389.541 142.907C390.73 143.011 391.932 143.145 393.114 143.305L393.018 144.014ZM375.251 143.699L375.18 142.987C376.365 142.87 377.571 142.779 378.765 142.717L378.802 143.432C377.619 143.493 376.424 143.583 375.251 143.699ZM385.925 143.392C384.885 143.35 383.829 143.329 382.789 143.329C382.645 143.328 382.505 143.329 382.364 143.33L382.359 142.614C382.503 142.613 382.648 142.613 382.789 142.613C383.839 142.613 384.904 142.634 385.954 142.677L385.925 143.392Z" fill="#4D43F1"/>
    <path d="M72.8871 211.622C71.6857 211.615 70.4746 211.565 69.2875 211.474L69.3422 210.76C70.5124 210.85 71.7066 210.899 72.8914 210.906L72.8871 211.622ZM76.4893 211.516L76.4429 210.801C77.6191 210.725 78.8082 210.605 79.9769 210.445L80.074 211.154C78.8886 211.317 77.6827 211.438 76.4893 211.516ZM65.7071 211.071C64.5209 210.895 63.329 210.673 62.1642 210.412L62.3206 209.714C63.4687 209.971 64.6435 210.189 65.8125 210.363L65.7071 211.071ZM83.6241 210.537L83.476 209.836C84.6293 209.593 85.7889 209.304 86.9227 208.978L87.1206 209.666C85.9704 209.997 84.7939 210.29 83.6241 210.537ZM58.678 209.5C57.5305 209.155 56.3812 208.764 55.262 208.337L55.5172 207.668C56.6203 208.088 57.7533 208.474 58.8842 208.814L58.678 209.5ZM90.5457 208.544L90.2986 207.872C91.4032 207.466 92.5078 207.013 93.582 206.528L93.877 207.18C92.787 207.673 91.6664 208.132 90.5457 208.544ZM51.9399 206.93C50.8556 206.424 49.7751 205.871 48.7284 205.288L49.0772 204.662C50.109 205.238 51.1738 205.782 52.2426 206.281L51.9399 206.93ZM97.102 205.58L96.7612 204.95C97.7962 204.39 98.8255 203.783 99.8201 203.148L100.206 203.752C99.1964 204.396 98.1522 205.011 97.102 205.58ZM45.6437 203.42C44.6433 202.764 43.6533 202.063 42.7013 201.336L43.1358 200.767C44.0746 201.484 45.0506 202.175 46.0366 202.821L45.6437 203.42ZM103.17 201.706L102.743 201.131C103.689 200.427 104.622 199.68 105.515 198.911L105.983 199.453C105.076 200.234 104.13 200.992 103.17 201.706ZM39.9157 199.049C39.0196 198.258 38.1395 197.423 37.3004 196.569L37.811 196.067C38.6384 196.91 39.5058 197.732 40.3893 198.512L39.9157 199.049ZM108.627 197.006L108.123 196.498C108.96 195.667 109.777 194.794 110.552 193.905L111.092 194.376C110.306 195.277 109.476 196.163 108.627 197.006ZM34.8684 193.91C34.0925 192.998 33.3402 192.047 32.6325 191.084L33.2096 190.66C33.9073 191.609 34.6487 192.546 35.4137 193.445L34.8684 193.91ZM113.363 191.577L112.791 191.146C113.502 190.203 114.187 189.223 114.828 188.233L115.429 188.622C114.779 189.626 114.084 190.62 113.363 191.577ZM30.6046 188.107C29.9671 187.096 29.3583 186.048 28.795 184.994L29.4264 184.656C29.9815 185.695 30.582 186.728 31.2103 187.726L30.6046 188.107ZM117.278 185.526L116.651 185.181C117.22 184.146 117.758 183.078 118.251 182.006L118.901 182.305C118.402 183.392 117.856 184.476 117.278 185.526ZM27.2138 181.759C26.7278 180.666 26.2756 179.543 25.8698 178.42L26.5434 178.176C26.9432 179.283 27.3888 180.39 27.8679 181.468L27.2138 181.759ZM120.288 178.975L119.618 178.723C120.032 177.618 120.41 176.485 120.743 175.354L121.43 175.556C121.092 176.703 120.708 177.853 120.288 178.975ZM24.7686 174.988C24.4445 173.836 24.1584 172.658 23.9181 171.486L24.6194 171.343C24.856 172.497 25.1381 173.658 25.4577 174.794L24.7686 174.988ZM122.322 172.065L121.622 171.913C121.872 170.761 122.084 169.585 122.251 168.417L122.96 168.518C122.79 169.703 122.575 170.897 122.322 172.065ZM23.3221 167.933C23.1669 166.748 23.0523 165.541 22.9819 164.346L23.6967 164.304C23.7663 165.483 23.8791 166.672 24.0321 167.84L23.3221 167.933ZM123.342 164.936L122.628 164.885C122.711 163.711 122.753 162.516 122.753 161.335H123.469C123.469 162.533 123.426 163.744 123.342 164.936ZM23.6122 160.751L22.8962 160.743C22.91 159.545 22.967 158.334 23.0649 157.144L23.7783 157.203C23.6818 158.376 23.626 159.57 23.6122 160.751ZM122.697 158.95C122.641 157.769 122.542 156.578 122.403 155.411L123.113 155.326C123.255 156.511 123.355 157.719 123.412 158.917L122.697 158.95ZM24.197 153.676L23.4894 153.566C23.6729 152.383 23.9017 151.192 24.1692 150.028L24.8669 150.188C24.6034 151.336 24.378 152.51 24.197 153.676ZM121.856 151.901C121.633 150.743 121.365 149.579 121.059 148.44L121.75 148.254C122.061 149.41 122.333 150.591 122.559 151.766L121.856 151.901ZM25.787 146.757L25.1026 146.547C25.4545 145.401 25.8529 144.254 26.2862 143.138L26.9535 143.397C26.5265 144.497 26.1339 145.628 25.787 146.757ZM120.014 145.045C119.627 143.932 119.195 142.82 118.729 141.738L119.387 141.455C119.859 142.553 120.298 143.681 120.691 144.81L120.014 145.045ZM28.3599 140.131L27.713 139.824C28.2253 138.743 28.7841 137.666 29.3737 136.622L29.9972 136.975C29.4158 138.003 28.8648 139.065 28.3599 140.131ZM117.208 138.532C116.665 137.485 116.077 136.445 115.461 135.441L116.071 135.067C116.696 136.085 117.293 137.14 117.844 138.202L117.208 138.532ZM31.8562 133.945L31.2596 133.549C31.9214 132.553 32.6283 131.567 33.3603 130.619L33.927 131.057C33.2056 131.991 32.5085 132.963 31.8562 133.945ZM113.497 132.484C112.809 131.525 112.079 130.58 111.325 129.673L111.876 129.215C112.641 130.135 113.382 131.094 114.078 132.066L113.497 132.484ZM36.1983 128.324L35.6645 127.847C36.4615 126.955 37.3009 126.08 38.1595 125.246L38.6581 125.76C37.8119 126.581 36.9842 127.444 36.1983 128.324ZM108.959 127.023C108.142 126.171 107.284 125.339 106.41 124.548L106.89 124.017C107.777 124.819 108.647 125.664 109.476 126.527L108.959 127.023ZM41.294 123.378L40.8332 122.83C41.7483 122.061 42.7031 121.314 43.6716 120.611L44.0923 121.19C43.1375 121.883 42.1962 122.62 41.294 123.378ZM103.69 122.261C102.76 121.534 101.792 120.831 100.814 120.173L101.213 119.579C102.206 120.247 103.188 120.959 104.131 121.697L103.69 122.261ZM47.0387 119.209L46.6606 118.601C47.6762 117.969 48.7272 117.366 49.7851 116.81L50.1188 117.443C49.076 117.992 48.0396 118.586 47.0387 119.209ZM97.7953 118.296C96.7709 117.709 95.7125 117.152 94.6494 116.64L94.9598 115.995C96.0387 116.514 97.1123 117.079 98.1513 117.675L97.7953 118.296ZM53.3163 115.903L53.029 115.248C54.1236 114.769 55.2494 114.323 56.376 113.924L56.6152 114.599C55.5049 114.992 54.3948 115.431 53.3163 115.903ZM91.3914 115.215C90.2937 114.781 89.1656 114.381 88.0384 114.028L88.2526 113.345C89.3962 113.703 90.5406 114.108 91.6544 114.549L91.3914 115.215ZM60.0037 113.533L59.8138 112.843C60.966 112.526 62.1459 112.247 63.3206 112.013L63.4601 112.715C62.3025 112.946 61.1395 113.221 60.0037 113.533ZM84.6132 113.088C83.466 112.817 82.2935 112.585 81.1291 112.397L81.2427 111.69C82.4241 111.88 83.6135 112.116 84.7773 112.391L84.6132 113.088ZM66.9666 112.149L66.8776 111.438C68.0621 111.29 69.2698 111.183 70.4663 111.119L70.5044 111.834C69.3247 111.897 68.1345 112.003 66.9666 112.149ZM77.6045 111.958C76.4317 111.854 75.2384 111.791 74.0576 111.771L74.0699 111.055C75.2679 111.076 76.4781 111.139 77.6678 111.245L77.6045 111.958Z" fill="#4D43F1"/>
    <path d="M274.543 40.7826C267.881 40.7826 262.461 35.3631 262.461 28.7014C262.461 22.0398 267.881 16.6199 274.543 16.6199C281.205 16.6199 286.624 22.0395 286.624 28.7014C286.624 35.3631 281.204 40.7826 274.543 40.7826ZM274.543 17.1568C268.177 17.1568 262.998 22.3356 262.998 28.7014C262.998 35.0669 268.177 40.2457 274.543 40.2457C280.909 40.2457 286.088 35.0669 286.088 28.7014C286.087 22.3356 280.908 17.1568 274.543 17.1568Z" fill="#4D43F1"/>
    <path d="M400.24 84.1493V301.854C400.24 306.386 396.567 310.059 392.042 310.059H75.6706C71.1385 310.059 67.4656 306.386 67.4656 301.854V84.1493C67.4656 79.6173 71.1385 75.9443 75.6706 75.9443H392.042C396.567 75.9443 400.24 79.6173 400.24 84.1493Z" fill="white"/>
    <path d="M392.042 310.417H75.6706C70.949 310.417 67.1077 306.576 67.1077 301.854V84.1501C67.1077 79.4285 70.949 75.5872 75.6706 75.5872H392.042C396.76 75.5872 400.598 79.4285 400.598 84.1501V301.854C400.598 306.576 396.76 310.417 392.042 310.417ZM75.6706 76.3031C71.3439 76.3031 67.8236 79.8234 67.8236 84.1501V301.854C67.8236 306.181 71.3439 309.701 75.6706 309.701H392.042C396.365 309.701 399.882 306.181 399.882 301.854V84.1501C399.882 79.8234 396.365 76.3031 392.042 76.3031H75.6706Z" fill="#4D43F1"/>
    <path d="M400.24 84.1493V97.0654H67.4656V84.1493C67.4656 79.6173 71.1385 75.9443 75.6706 75.9443H392.042C396.567 75.9443 400.24 79.6173 400.24 84.1493Z" fill="white"/>
    <path d="M400.598 97.4242H67.1077V84.1501C67.1077 79.4285 70.949 75.5872 75.6706 75.5872H392.042C396.76 75.5872 400.598 79.4285 400.598 84.1501V97.4242ZM67.8236 96.7082H399.882V84.1501C399.882 79.8234 396.365 76.3031 392.042 76.3031H75.6706C71.3439 76.3031 67.8236 79.8234 67.8236 84.1501V96.7082Z" fill="#4D43F1"/>
    <path d="M85.9427 90.324C88.0515 90.324 89.7611 88.6145 89.7611 86.5056C89.7611 84.3968 88.0515 82.6873 85.9427 82.6873C83.8338 82.6873 82.1243 84.3968 82.1243 86.5056C82.1243 88.6145 83.8338 90.324 85.9427 90.324Z" fill="#3335CF"/>
    <path d="M100.501 82.6873C98.395 82.6873 96.6819 84.4001 96.6819 86.5056C96.6819 88.6112 98.3948 90.3243 100.501 90.3243C102.606 90.3243 104.319 88.6114 104.319 86.5056C104.319 84.4001 102.606 82.6873 100.501 82.6873Z" fill="#3335CF"/>
    <path d="M115.058 90.324C112.953 90.324 111.24 88.6112 111.24 86.5056C111.24 84.4001 112.953 82.6873 115.058 82.6873C117.164 82.6873 118.877 84.4001 118.877 86.5056C118.877 88.6112 117.164 90.324 115.058 90.324ZM115.058 83.4032C113.348 83.4032 111.956 84.795 111.956 86.5056C111.956 88.2162 113.348 89.6081 115.058 89.6081C116.769 89.6081 118.161 88.2162 118.161 86.5056C118.161 84.795 116.769 83.4032 115.058 83.4032Z" fill="#4D43F1"/>
    <path d="M209.014 90.7571H138.044C135.7 90.7571 133.793 88.8501 133.793 86.506C133.793 84.1619 135.7 82.2549 138.044 82.2549H209.015C211.359 82.2549 213.266 84.1619 213.266 86.506C213.266 88.8501 211.358 90.7571 209.014 90.7571ZM138.044 82.9709C136.095 82.9709 134.509 84.5569 134.509 86.506C134.509 88.4552 136.095 90.0412 138.044 90.0412H209.015C210.964 90.0412 212.55 88.4552 212.55 86.506C212.55 84.5569 210.964 82.9709 209.015 82.9709H138.044Z" fill="#4D43F1"/>
    <path d="M299.265 198.375C299.265 232.656 271.479 260.45 237.198 260.45C202.918 260.45 175.124 232.656 175.124 198.375C175.124 166.214 199.588 139.766 230.919 136.616L232.988 156.985C211.996 159.097 195.608 176.825 195.608 198.375C195.608 221.351 214.23 239.973 237.198 239.973C260.166 239.973 278.782 221.351 278.782 198.375C278.782 194.366 278.216 190.493 277.156 186.827L296.838 181.142C298.421 186.612 299.265 192.397 299.265 198.375Z" fill="#4D43F1"/>
    <path d="M237.196 248.491C264.875 248.491 287.314 226.052 287.314 198.373C287.314 170.694 264.875 148.255 237.196 148.255C209.517 148.255 187.078 170.694 187.078 198.373C187.078 226.052 209.517 248.491 237.196 248.491Z" fill="white"/>
    <path opacity="0.5" d="M237.196 248.491C264.875 248.491 287.314 226.052 287.314 198.373C287.314 170.694 264.875 148.255 237.196 148.255C209.517 148.255 187.078 170.694 187.078 198.373C187.078 226.052 209.517 248.491 237.196 248.491Z" fill="#D1D1FF"/>
    <path d="M237.196 233.882C256.802 233.882 272.695 217.985 272.695 198.375C272.695 178.764 256.802 162.867 237.196 162.867C217.591 162.867 201.698 178.764 201.698 198.375C201.698 217.985 217.591 233.882 237.196 233.882Z" fill="white"/>
    <path d="M241.248 215.835V221.233H234.39V216.079C229.528 215.788 224.813 214.473 221.895 212.675L225.589 204.309C228.8 206.206 233.076 207.421 236.821 207.421C240.08 207.421 241.248 206.74 241.248 205.572C241.248 201.293 222.429 204.746 222.429 192.051C222.429 186.554 226.416 181.935 234.39 180.816V175.515H241.248V180.719C244.843 181.059 248.347 181.984 251.118 183.54L247.666 191.857C244.308 190.154 241.149 189.329 238.183 189.329C234.826 189.329 233.757 190.301 233.757 191.467C233.757 195.554 252.575 192.148 252.575 204.696C252.575 209.95 248.783 214.523 241.248 215.835Z" fill="#4D43F1"/>
    <path d="M458.16 33.4756H323.125V116.044H458.16V33.4756Z" fill="white"/>
    <path d="M458.517 116.403H322.766V33.1184H458.517V116.403ZM323.483 115.687H457.802V33.8344H323.483V115.687Z" fill="#4D43F1"/>
    <path d="M347.895 89.7634H340.123V104.036H347.895V89.7634Z" fill="#D1D1FF"/>
    <path d="M363.439 83.2417H355.667V104.036H363.439V83.2417Z" fill="#D1D1FF"/>
    <path d="M378.984 88.572H371.212V104.035H378.984V88.572Z" fill="#D1D1FF"/>
    <path d="M394.527 77.6899H386.755V104.033H394.527V77.6899Z" fill="#D1D1FF"/>
    <path d="M410.072 70.7341H402.3V104.037H410.072V70.7341Z" fill="#D1D1FF"/>
    <path d="M425.616 60.7937H417.844V104.036H425.616V60.7937Z" fill="#D1D1FF"/>
    <path d="M441.16 45.4856H433.388V104.035H441.16V45.4856Z" fill="#D1D1FF"/>
    <path d="M346.3 52.4312H340.123V59.4247H346.3V52.4312Z" fill="#D1D1FF"/>
    <path d="M397.675 55.6675H355.845V57.46H397.675V55.6675Z" fill="#D1D1FF"/>
    <path d="M336.654 157.907L328.101 134.283C318.439 137.782 311.534 147.037 311.534 157.907C311.534 171.78 322.781 183.026 336.654 183.026C350.526 183.026 361.773 171.779 361.773 157.907C361.773 153.732 360.749 149.799 358.947 146.335L336.654 157.907Z" fill="#EBEBFF"/>
    <path d="M362.289 137.385C358.102 129.337 349.694 123.837 339.995 123.837C336.992 123.837 334.112 124.366 331.442 125.332L339.995 148.956L362.289 137.385Z" fill="#4D43F1"/>
    <path d="M372.21 238.407H312.785V294.968H372.21V238.407Z" fill="#EBEBFF"/>
    <path d="M355.385 253.442H322.093V255.831H355.385V253.442Z" fill="white"/>
    <path d="M355.385 260.601H322.093V262.99H355.385V260.601Z" fill="white"/>
    <path d="M145.373 130.293H93.6987V217.642H145.373V130.293Z" fill="#EBEBFF"/>
    <path d="M135.464 142.941H101.575V173.966H135.464V142.941Z" fill="white"/>
    <path d="M101.827 142.682L101.344 143.21L135.233 174.237L135.717 173.709L101.827 142.682Z" fill="#EBEBFF"/>
    <path d="M135.209 142.682L101.324 173.71L101.807 174.238L135.693 143.21L135.209 142.682Z" fill="#EBEBFF"/>
    <path d="M118.537 165.967H0.341797V243.844H118.537V165.967Z" fill="white"/>
    <path d="M118.879 244.187H0V165.627H118.879V244.187ZM0.683608 243.504H118.195V166.31H0.683608V243.504Z" fill="#4D43F1"/>
    <path d="M12.7952 225.042L20.4322 210.723L36.1835 225.52L46.6842 194.971L66.2542 216.45L79.1416 211.2L102.53 180.652" fill="white"/>
    <path d="M36.3419 226.159L20.5279 211.303L13.111 225.21L12.4792 224.873L20.3363 210.141L36.0249 224.879L46.5421 194.283L66.3504 216.024L78.9162 210.905L102.246 180.434L102.814 180.869L79.3667 211.494L66.1576 216.876L65.9895 216.691L46.8265 195.658L36.3419 226.159Z" fill="#4D43F1"/>
    <path d="M20.4916 212.632C21.579 212.632 22.4605 211.75 22.4605 210.663C22.4605 209.575 21.579 208.694 20.4916 208.694C19.4042 208.694 18.5227 209.575 18.5227 210.663C18.5227 211.75 19.4042 212.632 20.4916 212.632Z" fill="#4D43F1"/>
    <path d="M36.0641 227.13C37.1515 227.13 38.033 226.248 38.033 225.161C38.033 224.073 37.1515 223.192 36.0641 223.192C34.9767 223.192 34.0952 224.073 34.0952 225.161C34.0952 226.248 34.9767 227.13 36.0641 227.13Z" fill="#4D43F1"/>
    <path d="M46.8034 197.06C47.8908 197.06 48.7723 196.179 48.7723 195.091C48.7723 194.004 47.8908 193.123 46.8034 193.123C45.716 193.123 44.8345 194.004 44.8345 195.091C44.8345 196.179 45.716 197.06 46.8034 197.06Z" fill="#4D43F1"/>
    <path d="M84.4984 178.383H34.3806V179.099H84.4984V178.383Z" fill="#4D43F1"/>
    <path d="M281.362 354.208C279.244 340.324 282.156 325.726 289.44 313.717C296.724 301.708 308.323 292.38 321.615 287.843C314.088 293.111 309.494 301.627 306.288 310.237C303.083 318.847 300.979 327.884 297.024 336.176C293.068 344.469 286.832 352.216 278.184 355.319L281.362 354.208Z" fill="#4D43F1"/>
    <path d="M279.282 354.323C278.982 338.276 275.865 322.286 270.117 307.301C268.076 301.981 265.628 296.669 261.648 292.59C257.669 288.511 251.881 285.823 246.27 286.82C253.258 292.05 256.877 300.653 258.915 309.14C260.954 317.627 261.739 326.433 264.609 334.676C267.48 342.918 272.969 350.863 281.185 353.81L279.282 354.323Z" fill="#4D43F1"/>
    <path d="M278.187 355.375C274.192 344.617 269.849 333.587 261.816 325.392C253.782 317.197 241.055 312.506 230.534 317.09C239.054 319.022 246.861 323.955 252.265 330.82C256.228 335.854 258.893 341.823 262.968 346.767C267.044 351.711 273.261 355.692 279.558 354.514L278.187 355.375Z" fill="#D1D1FF"/>
    <path d="M276.911 354.641C275.274 342.834 273.636 330.837 275.361 319.042C277.086 307.248 282.663 295.473 292.655 288.974C287.124 294.398 285.278 302.613 285.275 310.36C285.272 318.106 286.841 325.782 286.973 333.527C287.106 341.272 285.568 349.501 280.329 355.207L276.911 354.641Z" fill="#D1D1FF"/>
    <path d="M282.439 352.92C286.268 343.163 290.351 333.032 298.149 326.029C303.157 321.531 309.535 318.582 316.205 317.679C311.529 321.411 308.6 326.878 306.172 332.345C303.743 337.812 301.647 343.506 298.131 348.346C294.615 353.185 289.332 357.167 283.355 357.423L282.439 352.92Z" fill="#D1D1FF"/>
    <path d="M301.885 382.61H258.874L252.243 349.523H308.516L301.885 382.61Z" fill="white"/>
    <path d="M302.178 382.969H258.581L251.806 349.166H308.953L302.178 382.969ZM259.167 382.253H301.591L308.079 349.882H252.68L259.167 382.253Z" fill="#4D43F1"/>
    <path d="M378.886 362.717V382.613H353.084L364.897 372.975L365.519 360.852L378.886 362.717Z" fill="#D1D1FF"/>
    <path d="M365.156 372.707L364.663 373.226L369.589 377.911L370.082 377.393L365.156 372.707Z" fill="#1B1B43"/>
    <path d="M376.386 367.995H367.556V368.711H376.386V367.995Z" fill="#1B1B43"/>
    <path d="M409.041 363.65L409.973 382.613H384.171L395.052 373.287V361.785L409.041 363.65Z" fill="#D1D1FF"/>
    <path d="M395.284 372.98L394.81 373.516L398.817 377.055L399.291 376.519L395.284 372.98Z" fill="#1B1B43"/>
    <path d="M406.695 368.353H397.984V369.069H406.695V368.353Z" fill="#1B1B43"/>
    <path d="M381.485 248.354C381.928 287.999 385.215 327.012 391.497 365.36H413.239C408.717 336.033 406.672 300.42 409.201 253.203L393.5 240.344L381.485 248.354Z" fill="#FFA121"/>
    <path d="M364.297 253.602L354.459 297.355C352.095 307.869 351.931 318.758 353.977 329.338L360.887 365.076H382.629L376.05 318.16L391.784 246.64L364.297 253.602Z" fill="#FFA121"/>
    <path d="M382.95 295.525C382.895 294.624 381.657 274.501 381.528 271.952L375.847 269.885L376.091 269.212L382.234 271.446V271.697C382.235 272.138 383.17 287.447 383.665 295.481L382.95 295.525Z" fill="#BE443D"/>
    <path d="M430.024 154.816L431.187 152.042C431.187 152.042 426.981 143.181 428.323 142.018C429.666 140.855 431.814 144.166 431.814 144.166C431.814 144.166 431.187 133.426 433.246 133.337C434.982 133.261 434.857 136.38 435.036 141.033C435.036 141.033 436.11 139.601 438.085 141.081C438.974 139.601 440.853 140.586 441.39 141.481C442.016 140.765 444.612 140.944 444.254 143.987C443.8 147.846 442.016 154.995 442.016 154.995L436.288 159.739L430.024 154.816Z" fill="#FFBC96"/>
    <path d="M384.022 191.867L392.732 191.798C408.009 190.435 419.941 178.025 419.941 178.025L430.023 154.816L442.016 154.995L434.977 182.272C433.966 186.189 431.788 189.707 428.732 192.358L403.712 214.062L384.022 191.867Z" fill="#3335CF"/>
    <path d="M360.15 211.617L364.297 253.599L409.201 253.202L407.65 202.607L384.023 191.867L367.675 198.788L360.15 211.617Z" fill="#3335CF"/>
    <path d="M332.343 215.692C331.609 215.041 330.688 214.645 329.71 214.563C324.747 214.15 309.229 212.952 309.379 214.155C309.558 215.587 321.371 220.957 321.371 220.957C323.898 223.8 326.424 226.643 328.95 229.486L335.892 218.842L332.343 215.692Z" fill="#FFBC96"/>
    <path d="M366.189 195.906C362.99 196.465 360.241 198.497 358.768 201.391L345.535 227.402L335.892 218.843L328.95 229.487C329.795 230.438 330.64 231.388 331.484 232.339C335.233 236.558 339.605 242.226 345.458 243.455C348.441 244.082 351.218 242.842 353.355 240.791C354.922 239.286 356.324 237.428 357.441 235.564L362.718 226.865L379.544 193.572L366.189 195.906Z" fill="#3335CF"/>
    <path d="M360.493 211.603L359.78 211.673L362.293 237.506L363.005 237.437L360.493 211.603Z" fill="#D1D1FF"/>
    <path d="M407.919 210.304L403.712 214.063L408.187 221.492L407.919 210.304Z" fill="#1B1B43"/>
    <path d="M436.588 146.374C434.899 146.374 434.768 144.16 434.767 141.034H435.304C435.305 144.714 435.605 145.837 436.588 145.837C436.784 145.837 436.952 145.758 437.103 145.597C437.581 145.084 437.767 143.885 437.824 142.808C437.787 142.03 437.806 141.352 437.817 141.071L438.353 141.063C438.358 141.129 438.406 141.852 438.365 142.744C438.439 144.202 438.685 145.643 439.171 145.789C439.443 145.87 439.678 145.835 439.891 145.682C440.47 145.265 440.796 144.084 440.965 143.029C440.98 142.576 441.029 142.05 441.125 141.44L441.658 141.49C441.656 141.55 441.635 142.162 441.522 142.933C441.483 144.049 441.611 145.131 442.062 145.321C442.396 145.462 442.673 145.46 442.906 145.318C443.52 144.942 443.744 143.677 443.778 143.221L444.313 143.261C444.307 143.339 444.159 145.181 443.186 145.776C442.8 146.012 442.351 146.026 441.853 145.816C441.728 145.763 441.333 145.534 441.112 144.696C440.901 145.297 440.609 145.827 440.205 146.118C439.852 146.371 439.453 146.434 439.016 146.303C438.545 146.161 438.252 145.558 438.073 144.805C437.941 145.273 437.756 145.684 437.495 145.963C437.241 146.236 436.936 146.374 436.588 146.374Z" fill="#D28572"/>
    <path d="M380.235 202.056C376.419 202.364 373.083 199.522 372.775 195.713L372.696 194.746L371.608 181.243L380.02 180.57L385.419 180.134L386.579 194.596C386.886 198.412 384.044 201.749 380.235 202.056Z" fill="#FFBC96"/>
    <path d="M382.712 185.127C380.092 189.745 376.34 193.067 372.696 194.749L371.608 181.246L380.02 180.573L382.712 185.127Z" fill="#1B1B43"/>
    <path d="M385.455 170.983L383.787 185.066C383.787 185.066 378.417 190.199 370.542 189.956C367.671 189.87 365.981 187.149 364.993 183.691C364.585 182.245 364.298 180.677 364.098 179.109C363.439 173.925 363.74 168.835 363.74 168.835L375.911 164.782L385.455 170.983Z" fill="#FFBC96"/>
    <path d="M383.605 176.774C382.338 172.256 380.061 169.983 376.982 169.495C367.197 174.805 360.844 171.643 356.219 165.736C367.555 167.944 372.508 151.834 383.367 162.574C391.421 165.02 391.273 172.717 386.709 178.981L383.605 176.774Z" fill="#1B1B43"/>
    <path d="M388.631 178.513C389.046 176.387 387.889 174.372 386.045 174.012C384.202 173.652 382.371 175.083 381.956 177.209C381.541 179.335 382.698 181.35 384.542 181.71C386.385 182.07 388.216 180.638 388.631 178.513Z" fill="#FFBC96"/>
    <path d="M386.575 176.393C386.013 176.488 385.651 176.912 385.379 177.395C385.111 177.886 384.936 178.431 384.831 179.02L384.621 179.032C384.532 178.718 384.531 178.383 384.585 178.061C384.638 177.738 384.748 177.423 384.913 177.133C385.079 176.845 385.298 176.574 385.592 176.383C385.878 176.19 386.259 176.091 386.591 176.184L386.575 176.393Z" fill="#1B1B43"/>
    <path d="M366.661 177.343C366.661 177.952 366.367 178.446 366.004 178.446C365.642 178.446 365.348 177.952 365.348 177.343C365.348 176.733 365.642 176.239 366.004 176.239C366.367 176.239 366.661 176.733 366.661 177.343Z" fill="#1B1B43"/>
    <path d="M372.085 176.89C372.085 177.551 371.767 178.086 371.374 178.086C370.982 178.086 370.663 177.551 370.663 176.89C370.663 176.23 370.982 175.694 371.374 175.694C371.767 175.694 372.085 176.23 372.085 176.89Z" fill="#1B1B43"/>
    <path d="M368.151 178.239C368.154 178.451 368.069 178.658 367.967 178.837C367.859 179.015 367.73 179.168 367.602 179.307C367.349 179.586 367.112 179.838 367.057 180.102C366.986 180.373 367.091 180.638 367.299 180.906C367.507 181.169 367.788 181.406 368.06 181.67L367.945 181.845C367.595 181.697 367.249 181.513 366.95 181.223C366.801 181.078 366.668 180.899 366.58 180.681C366.496 180.461 366.477 180.209 366.537 179.979C366.595 179.747 366.717 179.544 366.855 179.388C366.993 179.229 367.14 179.098 367.282 178.979C367.561 178.736 367.828 178.528 367.944 178.207L368.151 178.239Z" fill="#1B1B43"/>
    <path d="M368.668 184.203C369.424 184.034 370.125 183.795 370.751 183.405C371.064 183.213 371.36 182.99 371.645 182.745C371.929 182.501 372.2 182.235 372.482 181.964L372.653 182.087C372.302 182.805 371.737 183.436 371.029 183.862C370.323 184.289 369.481 184.492 368.68 184.412L368.668 184.203Z" fill="#1B1B43"/>
    <path d="M370.511 173.928C370.358 174.736 372.896 174.996 373.354 175.077C373.73 175.142 374.266 175.185 374.345 174.615C374.443 173.907 373.674 173.833 373.239 173.738C372.822 173.648 370.657 173.165 370.511 173.928Z" fill="#1B1B43"/>
    <path d="M366.979 174.425C366.966 175.206 364.947 175.284 364.578 175.33C364.274 175.367 363.85 175.372 363.882 174.824C363.922 174.142 364.533 174.122 364.887 174.061C365.227 174.003 366.992 173.687 366.979 174.425Z" fill="#1B1B43"/>
    <path opacity="0.2" d="M376.461 181.891C377.895 181.891 379.057 180.729 379.057 179.295C379.057 177.862 377.895 176.7 376.461 176.7C375.028 176.7 373.866 177.862 373.866 179.295C373.866 180.729 375.028 181.891 376.461 181.891Z" fill="#FE5B52"/>
    <path opacity="0.2" d="M366.038 181.622C366.038 182.474 365.63 183.226 364.993 183.691C364.585 182.245 364.298 180.677 364.098 179.109C365.215 179.403 366.038 180.419 366.038 181.622Z" fill="#FE5B52"/>
    <path d="M181.049 265.255H131.242V268.608H181.049V265.255Z" fill="#4D43F1"/>
    <path d="M181.047 265.256H138.984L154.914 226.415H196.977L181.047 265.256Z" fill="white"/>
    <path d="M181.287 265.615H138.45L154.674 226.058H197.511L181.287 265.615ZM139.518 264.899H180.807L196.444 226.774H155.154L139.518 264.899Z" fill="#4D43F1"/>
    <path d="M177.415 261.994H144.359L156.878 231.469H189.935L177.415 261.994Z" fill="#EBEBFF"/>
    <path d="M164.301 269.68H163.585V382.796H164.301V269.68Z" fill="#1B1B43"/>
    <path d="M204.117 268.61H123.77V275.001H204.117V268.61Z" fill="#D1D1FF"/>
    <path d="M58.9315 317.189H58.2156V382.79H58.9315V317.189Z" fill="#1B1B43"/>
    <path d="M78.2224 320.234H38.9243C39.7586 316.245 43.276 313.387 47.3518 313.387H69.7948C73.8707 313.387 77.3881 316.245 78.2224 320.234Z" fill="#D1D1FF"/>
    <path d="M68.7745 382.601H48.3723C48.3723 380.12 50.3833 378.109 52.864 378.109H64.2831C66.7635 378.109 68.7745 380.12 68.7745 382.601Z" fill="#D1D1FF"/>
    <path d="M88.8915 219.86C89.8967 221.305 91.3376 223.351 91.4971 225.139C91.7285 227.739 87.569 225.917 87.52 226.141C87.5197 226.141 88.8915 219.86 88.8915 219.86Z" fill="#D28572"/>
    <path d="M82.5393 222.92H69.3872V242.195H82.5393V222.92Z" fill="#FFBC96"/>
    <path d="M82.5392 226.226V239.987C78.3949 237.384 74.8125 233.517 71.7161 229.054L82.5392 226.226Z" fill="#1B1B43"/>
    <path d="M89.9316 221.03C89.522 227.688 86.9603 235.22 79.969 233.362C74.4775 231.903 68.4333 227.278 68.4333 220.608C68.4333 213.937 73.0502 208.529 78.7456 208.529C82.3051 208.529 86.7868 210.257 88.896 213.593C90.1615 215.595 90.1103 218.127 89.9316 221.03Z" fill="#FFBC96"/>
    <path d="M78.2916 219.099C80.1534 214.161 84.4154 213.675 84.4154 213.675C84.4154 213.675 94.2832 223.436 93.672 213.351C93.1863 205.337 85.3539 206.095 85.3539 206.095C81.5275 201.113 75.3908 203.062 73.1527 205.95C70.9146 208.838 71.7087 207.178 66.4383 209.055C61.1679 210.932 63.9837 218.946 63.0452 219.523C56.0422 219.523 57.3418 226.454 57.3418 226.454L73.9202 231.861L77.9136 220.96L78.2916 219.099Z" fill="#1B1B43"/>
    <path d="M80.02 219.666C81.0449 221.441 80.768 223.52 79.4008 224.31C78.0339 225.099 76.0947 224.299 75.0695 222.524C74.0445 220.748 74.3214 218.669 75.6886 217.88C77.0558 217.091 78.995 217.89 80.02 219.666Z" fill="#FFBC96"/>
    <path d="M77.9028 221.806C77.6697 221.356 77.4738 220.918 77.1596 220.612C77.0058 220.458 76.8271 220.332 76.6241 220.222C76.421 220.113 76.1951 220.021 75.9634 219.912L75.9989 219.725C76.2618 219.711 76.5284 219.742 76.7902 219.83C77.0514 219.915 77.3051 220.067 77.5044 220.273C77.704 220.479 77.8487 220.727 77.9386 220.981C78.0305 221.236 78.0795 221.497 78.0869 221.76L77.9028 221.806Z" fill="#1B1B43"/>
    <path d="M71.7059 209.873C74.7796 209.728 77.1436 206.91 76.9859 203.58C76.8282 200.25 74.2086 197.669 71.1349 197.814C68.0611 197.96 65.6972 200.777 65.8548 204.107C66.0125 207.437 68.6321 210.019 71.7059 209.873Z" fill="#1B1B43"/>
    <path opacity="0.2" d="M84.2124 227.31C85.5964 227.31 86.7183 226.188 86.7183 224.804C86.7183 223.42 85.5964 222.298 84.2124 222.298C82.8285 222.298 81.7065 223.42 81.7065 224.804C81.7065 226.188 82.8285 227.31 84.2124 227.31Z" fill="#FE5B52"/>
    <path d="M94.0569 289.597L51.9365 284.227L59.8766 242.365C60.4351 239.436 62.3825 236.952 65.096 235.72C67.3585 234.689 69.9431 234.625 72.2629 235.534L86.618 241.914C89.3816 243.138 91.2861 245.737 91.6298 248.737L92.4388 262.412L93.3624 277.912L94.0569 289.597Z" fill="#FFA121"/>
    <path d="M132.6 259.527L143.749 256.25C144.552 256.014 145.415 256.143 146.113 256.606C149.164 258.632 157.287 264.364 155.237 266.708C154.213 267.878 144.891 265.135 144.891 265.135L131.393 268.902L132.6 259.527Z" fill="#FFBC96"/>
    <path d="M93.3626 277.913C89.8544 273.446 87.7709 267.546 87.0764 260.243L92.439 262.413L93.3626 277.913Z" fill="#1B1B43"/>
    <path d="M85.346 241.388L87.0242 242.112C90.4792 243.601 93.5756 245.813 96.1047 248.598L109.927 263.822L132.6 259.526L135.583 271.698L107.095 280.601C104.846 281.001 102.548 280.225 101.002 278.543L80.4536 256.185L85.346 241.388Z" fill="#FFA121"/>
    <path d="M109.664 264.064C109.597 263.99 102.852 256.647 97.0115 250.098C91.2374 243.624 82.4342 240.477 82.3459 240.446L82.5834 239.77C82.6733 239.802 91.6461 243.007 97.5459 249.622C103.383 256.167 110.124 263.506 110.191 263.579L109.664 264.064Z" fill="#1B1B43"/>
    <path d="M82.1384 258.548L81.624 259.046L100.74 278.778L101.255 278.279L82.1384 258.548Z" fill="#1B1B43"/>
    <path d="M92.5306 352.917L83.4441 370.617L106.399 382.401L100.291 368.432L105.274 357.363L92.5306 352.917Z" fill="#D1D1FF"/>
    <path d="M100.197 368.085L93.6748 370.005L93.877 370.692L100.399 368.772L100.197 368.085Z" fill="#1B1B43"/>
    <path d="M106.825 364.55L86.0305 356.791L100.271 312.481C102.719 305.92 110.259 302.675 117.113 305.232C123.967 307.789 127.538 315.181 125.09 321.742L106.825 364.55Z" fill="#26289C"/>
    <path d="M126.992 361.559L129.022 382.62H154.824L143.011 372.982L140.237 360.843L126.992 361.559Z" fill="#D1D1FF"/>
    <path d="M142.837 372.651L136.721 376.023L137.067 376.65L143.183 373.278L142.837 372.651Z" fill="#1B1B43"/>
    <path d="M145.607 364.063L123.054 367.643L107.61 322.229L104.797 313.946L66.4423 314.253C56.9558 314.468 49.4095 306.342 50.3402 296.891L51.9368 284.233L89.8831 289.008L114.82 291.751C125.202 293.54 128.388 299.827 130.55 307.903L145.607 364.063Z" fill="#3335CF"/>
    <path d="M107.61 322.229L104.797 313.946L109.987 313.767C110.467 316.888 109.228 320.375 107.61 322.229Z" fill="#1B1B43"/>
    <path d="M449.893 382.256H15.3003V382.972H449.893V382.256Z" fill="#1B1B43"/>
    </svg>
    